<svg id="Layer_1" data-name="Layer 1" xmlns="http://www.w3.org/2000/svg" viewBox="0 0 605.95 187.83"><defs><style>.cls-1{fill:#41a2da;}.cls-2{fill:#de2227;}.cls-3{fill:#231f20;}</style></defs><path class="cls-1" d="M93.42,117.68H38.61a8.54,8.54,0,0,1-8.53-8.53V79.31a8.54,8.54,0,0,1,8.53-8.53h14v6.09h-14a2.44,2.44,0,0,0-2.44,2.44v29.84a2.44,2.44,0,0,0,2.44,2.44H93.42Z"/><path class="cls-2" d="M149.45,117.68h-14v-6.09h14a2.44,2.44,0,0,0,2.43-2.44V79.31a2.44,2.44,0,0,0-2.43-2.44H94.63V70.78h54.82A8.54,8.54,0,0,1,158,79.31v29.84A8.54,8.54,0,0,1,149.45,117.68Z"/><path class="cls-2" d="M108.64,157.87H78.8a8.54,8.54,0,0,1-8.53-8.52v-14h6.09v14a2.44,2.44,0,0,0,2.44,2.43h29.84a2.43,2.43,0,0,0,2.44-2.43V94.53h6.09v54.82A8.54,8.54,0,0,1,108.64,157.87Z"/><path class="cls-1" d="M76.36,93.32H70.27V38.5A8.54,8.54,0,0,1,78.8,30h29.84a8.54,8.54,0,0,1,8.53,8.52v14h-6.09v-14a2.43,2.43,0,0,0-2.44-2.43H78.8a2.44,2.44,0,0,0-2.44,2.43Z"/><path class="cls-1" d="M192.22,96.33a24,24,0,0,1-7.64-1.22,15.84,15.84,0,0,1-5.74-3.17l1.85-3.9a16.11,16.11,0,0,0,5.09,2.9,18.48,18.48,0,0,0,6.44,1.15,14.78,14.78,0,0,0,4.95-.7A5.88,5.88,0,0,0,200,89.46a4.55,4.55,0,0,0,.9-2.77,3.77,3.77,0,0,0-1.17-2.89A8.68,8.68,0,0,0,196.64,82a33.27,33.27,0,0,0-4.12-1.17c-1.5-.33-3-.73-4.52-1.17A20.1,20.1,0,0,1,183.86,78a8.55,8.55,0,0,1-3-2.82,8.3,8.3,0,0,1-1.14-4.57,9.18,9.18,0,0,1,1.42-5A9.87,9.87,0,0,1,185.5,62a18,18,0,0,1,7.57-1.38,23.42,23.42,0,0,1,6,.8,17.06,17.06,0,0,1,5.2,2.3l-1.65,4a16.28,16.28,0,0,0-4.75-2.17,18.49,18.49,0,0,0-4.84-.67,13.29,13.29,0,0,0-4.84.75,6,6,0,0,0-2.78,2,4.81,4.81,0,0,0-.87,2.8,3.86,3.86,0,0,0,1.17,3,8.64,8.64,0,0,0,3.05,1.75,42.06,42.06,0,0,0,4.12,1.17c1.5.35,3,.74,4.52,1.17a19.51,19.51,0,0,1,4.14,1.7,8.58,8.58,0,0,1,3,2.8,8.06,8.06,0,0,1,1.14,4.49,9,9,0,0,1-1.44,4.92A10.07,10.07,0,0,1,199.84,95,18.58,18.58,0,0,1,192.22,96.33Z"/><path class="cls-1" d="M220.54,95.93V61h4.09l15.68,26.42h-2.2L253.6,61h4.09l.05,35H253l0-27.42h1.15L240.26,91.69H238L224.08,68.51h1.25V95.93Z"/><path class="cls-1" d="M270.43,95.93l15.83-35h4.94l15.88,35h-5.24L287.7,63.77h2L275.57,95.93Zm6.74-8.74,1.35-4h19.67l1.45,4Z"/><path class="cls-1" d="M319.77,95.93V61H333.4a19.29,19.29,0,0,1,7.84,1.45,11.13,11.13,0,0,1,5,4.2,13.06,13.06,0,0,1,0,13.06,11.2,11.2,0,0,1-5,4.17,19.29,19.29,0,0,1-7.84,1.44H322.51L324.76,83V95.93Zm5-12.43-2.25-2.45h10.74c3.19,0,5.62-.69,7.26-2.07A7.17,7.17,0,0,0,343,73.16a7.08,7.08,0,0,0-2.48-5.79c-1.64-1.37-4.07-2.05-7.26-2.05H322.51l2.25-2.5Zm18.38,12.43-8.89-12.68h5.34l9,12.68Z"/><path class="cls-1" d="M370,95.93V65.32H358V61h28.91v4.35H375V95.93Z"/><path class="cls-2" d="M436.42,96.33A20,20,0,0,1,429.06,95a17.17,17.17,0,0,1-5.85-3.75,18,18,0,0,1,0-25.62,17.49,17.49,0,0,1,5.87-3.74,20,20,0,0,1,7.36-1.33A19.78,19.78,0,0,1,443.94,62,15.23,15.23,0,0,1,449.76,66l-3.25,3.14A12.92,12.92,0,0,0,442,66a14,14,0,0,0-5.35-1,14.66,14.66,0,0,0-5.47,1,13.08,13.08,0,0,0-4.37,2.79A12.7,12.7,0,0,0,424,73.08a14.65,14.65,0,0,0,0,10.74,12.6,12.6,0,0,0,2.87,4.27,13.26,13.26,0,0,0,4.37,2.8,14.86,14.86,0,0,0,5.47,1,14,14,0,0,0,5.35-1,12.68,12.68,0,0,0,4.49-3.17l3.25,3.15a15.61,15.61,0,0,1-5.82,4.09A19.74,19.74,0,0,1,436.42,96.33Z"/><path class="cls-2" d="M458.25,95.93l15.83-35H479l15.88,35h-5.24L475.53,63.77h2L463.39,95.93ZM465,87.19l1.35-4H486l1.45,4Z"/><path class="cls-2" d="M507.59,95.93V61h13.63a19.25,19.25,0,0,1,7.84,1.45,11.13,11.13,0,0,1,5,4.2,13.06,13.06,0,0,1,0,13.06,11.2,11.2,0,0,1-5,4.17,19.26,19.26,0,0,1-7.84,1.44H510.33L512.58,83V95.93Zm5-12.43-2.25-2.45h10.74q4.8,0,7.27-2.07a7.19,7.19,0,0,0,2.47-5.82,7.11,7.11,0,0,0-2.47-5.79q-2.48-2.06-7.27-2.05H510.33l2.25-2.5ZM531,95.93l-8.89-12.68h5.34l9,12.68Z"/><path class="cls-2" d="M556.38,91.59h20.37v4.34H551.38V61h24.67v4.35H556.38Zm-.45-15.54h18V80.3h-18Z"/><path class="cls-3" d="M179.22,127.1V111.34h6.15a8.73,8.73,0,0,1,3.53.65,5,5,0,0,1,2.25,1.89,5.35,5.35,0,0,1,.79,3,5.3,5.3,0,0,1-.79,2.94,5,5,0,0,1-2.25,1.89,8.55,8.55,0,0,1-3.53.66h-4.91l1-1v5.83Zm2.25-5.61-1-1.12h4.84a5,5,0,0,0,3.27-.93,3.6,3.6,0,0,0,0-5.22,5,5,0,0,0-3.27-.92h-4.84l1-1.13Z"/><path class="cls-3" d="M231.85,127.28a9.14,9.14,0,0,1-3.34-.61,8,8,0,0,1-2.67-1.7,7.83,7.83,0,0,1-1.75-2.56,8.42,8.42,0,0,1,0-6.39,7.79,7.79,0,0,1,1.75-2.55,7.92,7.92,0,0,1,2.66-1.7,8.91,8.91,0,0,1,3.35-.61,9.16,9.16,0,0,1,3.32.59,8,8,0,0,1,2.66,1.69,7.71,7.71,0,0,1,1.76,2.56,8.67,8.67,0,0,1,0,6.44,7.77,7.77,0,0,1-1.76,2.55,8,8,0,0,1-2.66,1.69A9,9,0,0,1,231.85,127.28Zm0-2a6.39,6.39,0,0,0,2.42-.45,5.68,5.68,0,0,0,1.94-1.27,5.82,5.82,0,0,0,1.28-1.92,6.41,6.41,0,0,0,0-4.82,5.76,5.76,0,0,0-1.28-1.93,5.83,5.83,0,0,0-1.94-1.27,6.39,6.39,0,0,0-2.42-.45,6.5,6.5,0,0,0-2.44.45,6.09,6.09,0,0,0-1.95,1.27,5.94,5.94,0,0,0-1.29,1.93,6.54,6.54,0,0,0,0,4.82,6,6,0,0,0,1.29,1.92,5.92,5.92,0,0,0,1.95,1.27A6.5,6.5,0,0,0,231.85,125.27Z"/><path class="cls-3" d="M272.92,127.1V111.34h2.25v13.8h8.53v2Z"/><path class="cls-3" d="M317.72,127.1v-6l.52,1.4-6.78-11.12h2.41l5.69,9.39h-1.3l5.72-9.39h2.23l-6.76,11.12.5-1.4v6Z"/><path class="cls-3" d="M364.12,127.28a9,9,0,0,1-3.33-.6,7.77,7.77,0,0,1-2.63-1.69,8.32,8.32,0,0,1-1.74-9,7.79,7.79,0,0,1,4.4-4.25,9.16,9.16,0,0,1,3.32-.59,8.77,8.77,0,0,1,3.36.62,6.87,6.87,0,0,1,2.63,1.83L368.66,115a5.87,5.87,0,0,0-2-1.41,6.46,6.46,0,0,0-2.41-.46,6.65,6.65,0,0,0-2.47.45,6,6,0,0,0-2,1.26,5.74,5.74,0,0,0-1.29,1.93,6.6,6.6,0,0,0,0,4.84,5.8,5.8,0,0,0,1.29,1.92,6,6,0,0,0,2,1.26,6.65,6.65,0,0,0,2.47.45,6.27,6.27,0,0,0,2.41-.46,5.67,5.67,0,0,0,2-1.43l1.47,1.42a7,7,0,0,1-2.63,1.85A8.81,8.81,0,0,1,364.12,127.28Z"/><path class="cls-3" d="M402.61,127.1V111.34h2.25v13.8h8.54v2Z"/><path class="cls-3" d="M445.25,127.1V111.34h2.25V127.1Z"/><path class="cls-3" d="M481.5,127.1V111.34h1.84l10.43,12.94h-1V111.34h2.25V127.1H493.2l-10.42-12.95h1V127.1Z"/><path class="cls-3" d="M529,127.1V111.34h2.26V127.1Z"/><path class="cls-3" d="M572.34,127.28a8.91,8.91,0,0,1-3.32-.6,7.72,7.72,0,0,1-2.64-1.69,8.32,8.32,0,0,1-1.74-9,7.79,7.79,0,0,1,4.4-4.25,9.16,9.16,0,0,1,3.32-.59,8.77,8.77,0,0,1,3.36.62,6.87,6.87,0,0,1,2.63,1.83L576.88,115a5.87,5.87,0,0,0-2-1.41,6.46,6.46,0,0,0-2.41-.46,6.65,6.65,0,0,0-2.47.45,6,6,0,0,0-2,1.26,5.74,5.74,0,0,0-1.29,1.93,6.6,6.6,0,0,0,0,4.84,5.8,5.8,0,0,0,1.29,1.92,6,6,0,0,0,2,1.26,6.65,6.65,0,0,0,2.47.45,6.27,6.27,0,0,0,2.41-.46,5.67,5.67,0,0,0,2-1.43l1.47,1.42a7,7,0,0,1-2.63,1.85A8.81,8.81,0,0,1,572.34,127.28Z"/></svg>